PathFileType	4	(X/Y/Z)	Static.trc																																																																									
DataRate	CameraRate	NumFrames	NumMarkers	Units	OrigDataRate	OrigDataStartFrame	OrigNumFrames																																																																					
100	100	5	25	mm	100	177	473																																																																					
Frame#	Time	AA			AI			Ant_Sh			CV7			GH			LAH			Lat_Sh			LCAJ			LPH			Post_Sh			RAH			RCAJ			RHLE			RHME			RPH			RUA			SJN			SXS			TS			TV8			centelbow			centpxt8			centijc7			centLPHRPH			ScapulaThoracicContactPt		
		X1	Y1	Z1	X2	Y2	Z2	X3	Y3	Z3	X4	Y4	Z4	X5	Y5	Z5	X6	Y6	Z6	X7	Y7	Z7	X8	Y8	Z8	X9	Y9	Z9	X10	Y10	Z10	X11	Y11	Z11	X12	Y12	Z12	X13	Y13	Z13	X14	Y14	Z14	X15	Y15	Z15	X16	Y16	Z16	X17	Y17	Z17	X18	Y18	Z18	X19	Y19	Z19	X20	Y20	Z20	X21	Y21	Z21	X22	Y22	Z22	X23	Y23	Z23	X24	Y24	Z24	X25	Y25	Z25
																																																																												
178	1.77	-220.0683289	1525.461792	716.4154663	-268.4212036	1354.709595	647.2727661	-107.0040283	1496.221069	723.0667114	-217.2411957	1594.310059	520.3814087	-164.1731415	1493.259888	719.1046753	3.626763105	1772.31958	487.3304749	-167.4169617	1512.019775	751.8894653	-158.8551178	1557.600586	340.1029053	-204.6121826	1725.437744	464.6064148	-245.9073029	1489.026245	713.4401855	-9.47461319	1771.676147	582.1530762	-162.4777527	1557.483765	690.5201416	-173.949234	1231.714111	850.7975464	-117.3436127	1177.989868	756.7991333	-206.4552002	1726.227661	580.2844849	-222.0041046	1337.25769	758.8980713	-54.90190887	1505.591675	523.0039673	4.11408329	1332.291504	523.6203003	-271.4273376	1496.689453	605.3442383	-235.0299072	1306.696045	516.873291	-145.6464233	1204.85199	803.7983398	-115.457912	1319.493774	520.2467957	-136.0715523	1549.950867	521.692688	-205.5336914	1725.832703	522.4454498	-253.3056234	1458.953613	656.3441569
179	1.78	-220.0864258	1525.467896	716.3712158	-268.5002747	1354.73877	647.2651367	-107.1050873	1496.212036	723.0905151	-217.2783966	1594.340576	520.3450317	-164.2214813	1493.264893	719.1187134	3.483062744	1772.302246	487.2788086	-167.4701233	1512.030518	751.9110107	-158.8529205	1557.596436	340.1033936	-204.6514435	1725.428711	464.5722351	-245.9842377	1489.045776	713.4331665	-9.436811447	1771.706299	582.088623	-162.5557861	1557.517578	690.4645386	-173.976181	1231.758057	850.7671509	-117.3688202	1177.993286	756.8369141	-206.537323	1726.226685	580.2771606	-222.0916748	1337.287842	758.8918457	-55.01253891	1505.539551	522.9981689	4.067300797	1332.305908	523.6442871	-271.4830933	1496.701172	605.2768555	-235.0353546	1306.643799	516.8737793	-145.6725006	1204.875671	803.8020325	-115.4840269	1319.474854	520.2590332	-136.1454678	1549.940063	521.6716003	-205.5943832	1725.827698	522.4246979	-253.3565979	1458.969279	656.3044027
180	1.79	-220.1118317	1525.508789	716.3879395	-268.5096436	1354.755493	647.2597046	-107.1484604	1496.237793	723.039978	-217.3430481	1594.335083	520.3353882	-164.276123	1493.283325	719.074585	3.477855682	1772.352905	487.3355713	-167.5248718	1511.995239	751.9362183	-158.9370575	1557.624023	340.0929565	-204.7050323	1725.411133	464.5996399	-246.0218964	1489.055542	713.4004517	-9.500271797	1771.726685	582.121582	-162.65271	1557.53833	690.4625244	-174.0625458	1231.776489	850.8095093	-117.4449768	1178.018066	756.84552	-206.5873871	1726.223511	580.2479248	-222.17276	1337.349731	758.8803101	-55.01621628	1505.564209	522.9995728	4.060730934	1332.335327	523.6377563	-271.5147095	1496.710815	605.2996826	-235.0821838	1306.662109	516.9014282	-145.7537613	1204.897278	803.8275146	-115.5107265	1319.498718	520.2695923	-136.1796322	1549.949646	521.6674805	-205.6462097	1725.817322	522.4237823	-253.3787282	1458.991699	656.3157756
181	1.8	-220.1797791	1525.501099	716.4230347	-268.6072693	1354.75415	647.2763062	-107.2004547	1496.244263	723.0574341	-217.3735352	1594.344604	520.3397217	-164.3813477	1493.288452	719.0797119	3.355924129	1772.384155	487.2964478	-167.6338806	1511.995117	751.9350586	-158.9405975	1557.609131	340.09021	-204.7053375	1725.394043	464.5984802	-246.1155243	1489.063477	713.3939209	-9.623563766	1771.717407	582.1776123	-162.7329712	1557.539307	690.4527588	-174.1236267	1231.801514	850.8320923	-117.4939499	1178.042969	756.8584595	-206.6716766	1726.212524	580.2425537	-222.2295532	1337.334106	758.9120483	-55.1138649	1505.59668	522.9649048	4.003922939	1332.327515	523.6363525	-271.5586243	1496.720703	605.2700806	-235.1627045	1306.684204	516.8378296	-145.8087883	1204.922241	803.8452759	-115.5793908	1319.505859	520.2370911	-136.2437	1549.970642	521.6523132	-205.6885071	1725.803284	522.420517	-253.4485575	1458.991984	656.3231405
182	1.81	-220.2553253	1525.484375	716.4086914	-268.6547241	1354.771484	647.2450562	-107.2539444	1496.252197	723.0787354	-217.4544983	1594.336914	520.3405762	-164.4236603	1493.294678	719.0935059	3.389437675	1772.429443	487.3287659	-167.6803284	1512.046509	751.8950806	-159.0258179	1557.591309	340.0886536	-204.7794647	1725.408691	464.5401306	-246.1315918	1489.067627	713.3977661	-9.671005249	1771.724243	582.1572876	-162.7953949	1557.597656	690.3861694	-174.1780853	1231.802979	850.8127441	-117.5850983	1178.013672	756.8699341	-206.6851807	1726.185303	580.2507324	-222.2243805	1337.277222	758.8986206	-55.16586304	1505.579224	522.9869385	3.996804714	1332.323364	523.6564941	-271.6473694	1496.668579	605.2675781	-235.2500916	1306.712769	516.8336792	-145.8815918	1204.908325	803.8413391	-115.6266434	1319.518066	520.2450867	-136.3101807	1549.958069	521.6637573	-205.7323227	1725.796997	522.3954315	-253.5191396	1458.974813	656.3071086
